<?xml version="1.0" standalone="no"?>
<!DOCTYPE svg PUBLIC "-//W3C//DTD SVG 20010904//EN"
 "http://www.w3.org/TR/2001/REC-SVG-20010904/DTD/svg10.dtd">
<svg version="1.0" xmlns="http://www.w3.org/2000/svg"
 width="450.000000pt" height="440.000000pt" viewBox="0 0 450.000000 440.000000"
 preserveAspectRatio="xMidYMid meet">

<g transform="translate(0.000000,440.000000) scale(0.100000,-0.100000)"
fill="#000000" stroke="none">
<path d="M2223 4393 c15 -2 39 -2 55 0 15 2 2 4 -28 4 -30 0 -43 -2 -27 -4z"/>
<path d="M2448 4383 c7 -3 16 -2 19 1 4 3 -2 6 -13 5 -11 0 -14 -3 -6 -6z"/>
<path d="M3675 3890 c10 -11 20 -20 23 -20 3 0 -3 9 -13 20 -10 11 -20 20 -23
20 -3 0 3 -9 13 -20z"/>
<path d="M3720 3856 c0 -2 8 -10 18 -17 15 -13 16 -12 3 4 -13 16 -21 21 -21
13z"/>
<path d="M2143 3800 c-59 -12 -181 -71 -245 -117 -179 -133 -318 -380 -367
-649 -6 -33 -15 -122 -21 -199 -12 -163 -20 -211 -55 -307 -39 -108 -139 -303
-143 -279 -2 13 -11 21 -23 21 -11 0 -38 9 -60 20 -106 55 -165 150 -156 252
4 50 47 168 61 168 2 0 15 -20 27 -45 12 -25 37 -61 55 -81 38 -41 26 -44 165
43 48 29 89 60 93 68 6 16 -32 204 -45 219 -4 5 -39 4 -81 -2 -55 -8 -74 -8
-81 1 -4 7 -6 50 -3 97 5 86 33 194 67 263 l19 37 74 0 c51 0 79 4 89 14 21
22 127 212 127 229 0 24 -148 110 -176 103 -48 -12 -211 -216 -272 -340 -75
-152 -86 -200 -88 -386 -1 -163 -1 -166 -32 -225 -60 -117 -67 -218 -21 -309
40 -81 141 -160 223 -173 l33 -5 -44 -99 c-138 -308 -151 -681 -31 -939 85
-183 243 -333 452 -431 371 -172 904 -154 1232 43 256 153 392 361 435 667 29
208 -28 517 -137 732 l-23 47 107 84 107 85 53 139 c49 129 52 140 36 151 -10
7 -20 13 -24 13 -3 0 -27 -59 -54 -131 -27 -71 -54 -136 -60 -143 -12 -14
-153 -127 -173 -140 -14 -8 -40 38 -78 139 -46 123 -56 177 -65 363 -5 100
-17 221 -25 267 -69 368 -299 656 -582 730 -61 16 -219 19 -290 5z m239 -55
c201 -43 366 -180 474 -396 81 -161 112 -300 124 -549 11 -249 25 -300 160
-590 120 -259 153 -393 154 -625 0 -167 -18 -263 -75 -384 -148 -320 -504
-510 -954 -511 -480 0 -858 211 -997 557 -41 103 -58 204 -58 341 0 229 39
371 180 657 148 300 166 360 181 586 13 217 45 351 117 494 96 193 227 324
390 390 109 44 195 53 304 30z"/>
<path d="M1936 3199 c-21 -5 -57 -23 -79 -39 -41 -30 -71 -28 -84 6 -6 16 -33
19 -33 3 0 -5 15 -23 32 -40 33 -30 27 -41 -8 -14 -23 17 -44 19 -44 4 0 -6
13 -16 28 -21 28 -11 29 -12 28 -98 -1 -78 2 -90 27 -129 15 -23 49 -55 74
-72 89 -56 225 -34 292 47 111 135 27 336 -149 357 -25 3 -62 1 -84 -4z m149
-29 c22 -9 49 -27 60 -40 11 -13 16 -21 10 -18 -5 2 -28 12 -50 22 -80 37
-193 -1 -228 -77 -23 -48 -22 -124 2 -163 11 -18 35 -43 54 -58 36 -27 70 -35
62 -13 -4 9 9 11 52 8 42 -2 52 -6 38 -12 -11 -4 -15 -8 -10 -9 26 -2 -33 -30
-64 -30 -127 0 -221 84 -223 198 -2 99 47 170 144 203 57 20 88 18 153 -11z
m-27 -62 c19 -19 14 -50 -11 -82 -23 -28 -23 -28 -56 -12 -57 30 -60 90 -4 99
51 8 59 7 71 -5z m-98 -124 c0 -8 -7 -14 -15 -14 -15 0 -21 21 -9 33 10 9 24
-2 24 -19z"/>
<path d="M2491 3188 c-56 -13 -135 -88 -150 -144 -30 -107 10 -204 105 -260
39 -23 53 -26 118 -22 86 4 139 33 183 100 24 36 28 52 29 122 1 77 3 81 27
89 32 10 44 37 17 37 -10 0 -22 -4 -25 -10 -3 -5 -14 -10 -23 -10 -15 1 -14 3
3 15 34 24 45 35 45 45 0 18 -29 10 -40 -10 -13 -24 -52 -26 -71 -4 -37 45
-141 70 -218 52z m117 -13 c207 -62 207 -335 0 -397 -45 -13 -135 0 -131 20 2
6 -3 12 -11 12 -8 0 -17 4 -21 9 -3 6 16 8 47 6 29 -2 58 -4 63 -5 6 0 3 -5
-5 -10 -12 -8 -11 -10 6 -10 29 0 84 39 111 79 16 24 23 49 23 84 0 132 -129
213 -256 161 l-39 -16 21 22 c18 18 109 58 135 60 3 0 28 -7 57 -15z m-27 -75
c23 0 33 -33 19 -60 -6 -11 -24 -27 -40 -35 -29 -15 -31 -15 -55 12 -27 31
-30 45 -14 75 9 16 17 19 41 14 17 -3 39 -6 49 -6z m39 -125 c0 -8 -7 -15 -15
-15 -8 0 -15 7 -15 15 0 8 7 15 15 15 8 0 15 -7 15 -15z"/>
<path d="M2208 2673 c44 -15 106 -11 117 7 4 6 -26 10 -77 9 l-83 -1 43 -15z"/>
<path d="M2163 2163 c9 -2 23 -2 30 0 6 3 -1 5 -18 5 -16 0 -22 -2 -12 -5z"/>
<path d="M2350 2163 c14 -3 30 -9 37 -15 7 -5 18 -6 25 -2 15 9 -22 22 -62 22
l-25 -1 25 -4z"/>
<path d="M2108 2153 c7 -3 16 -2 19 1 4 3 -2 6 -13 5 -11 0 -14 -3 -6 -6z"/>
<path d="M2073 2135 c0 -8 4 -12 9 -9 5 3 6 10 3 15 -9 13 -12 11 -12 -6z"/>
<path d="M1996 2111 c-4 -5 3 -7 14 -4 23 6 26 13 6 13 -8 0 -17 -4 -20 -9z"/>
<path d="M2563 2065 c0 -8 4 -12 9 -9 5 3 6 10 3 15 -9 13 -12 11 -12 -6z"/>
<path d="M1884 2028 l-29 -33 35 30 c19 17 37 31 39 33 2 1 0 2 -5 2 -6 0 -23
-15 -40 -32z"/>
<path d="M2586 2042 c-4 -7 3 -14 19 -18 14 -3 22 -11 18 -17 -3 -6 -1 -7 6
-3 9 6 9 11 0 22 -6 7 -15 12 -19 9 -5 -3 -10 0 -12 7 -3 9 -6 9 -12 0z"/>
<path d="M2560 2026 c0 -2 8 -10 18 -17 15 -13 16 -12 3 4 -13 16 -21 21 -21
13z"/>
<path d="M1820 1955 c0 -8 2 -15 4 -15 2 0 6 7 10 15 3 8 1 15 -4 15 -6 0 -10
-7 -10 -15z"/>
<path d="M2677 1868 c-3 -51 -13 -122 -22 -158 -16 -60 -84 -200 -110 -226 -6
-7 -22 -25 -36 -40 -43 -50 -100 -95 -112 -88 -7 4 -9 4 -5 -1 13 -14 -40 -47
-64 -40 -16 4 -19 4 -9 -3 20 -14 -53 -54 -179 -96 l-105 -35 35 -14 c59 -24
168 -40 231 -34 72 8 181 45 240 82 59 38 140 122 173 181 53 93 69 167 64
289 -4 99 -8 117 -38 183 -50 108 -56 108 -63 0z"/>
<path d="M2650 1935 c-11 -13 -10 -14 4 -9 9 3 16 10 16 15 0 13 -6 11 -20 -6z"/>
<path d="M1776 1885 c-3 -9 -6 -22 -5 -28 0 -7 5 -1 10 12 5 13 8 26 5 28 -2
2 -6 -3 -10 -12z"/>
<path d="M1741 1784 c0 -11 3 -14 6 -6 3 7 2 16 -1 19 -3 4 -6 -2 -5 -13z"/>
<path d="M1734 1665 c0 -49 1 -71 3 -48 2 23 2 64 0 90 -2 26 -3 8 -3 -42z"/>
<path d="M1743 1565 c-3 -9 -3 -18 -1 -21 3 -3 8 4 11 16 6 23 -1 27 -10 5z"/>
<path d="M1755 1499 c5 -27 55 -122 54 -104 0 6 -14 37 -30 70 -16 33 -27 48
-24 34z"/>
<path d="M1855 1350 c3 -4 16 -7 30 -7 32 0 26 8 -9 11 -14 2 -23 0 -21 -4z"/>
<path d="M1855 1318 c17 -20 35 -39 42 -42 22 -10 2 19 -35 49 l-37 30 30 -37z"/>
<path d="M11 2404 c0 -11 3 -14 6 -6 3 7 2 16 -1 19 -3 4 -6 -2 -5 -13z"/>
<path d="M4481 2394 c0 -11 3 -14 6 -6 3 7 2 16 -1 19 -3 4 -6 -2 -5 -13z"/>
<path d="M3 2205 c0 -33 2 -45 4 -27 2 18 2 45 0 60 -2 15 -4 0 -4 -33z"/>
<path d="M4493 2200 c0 -25 2 -35 4 -22 2 12 2 32 0 45 -2 12 -4 2 -4 -23z"/>
<path d="M530 786 c0 -2 8 -10 18 -17 15 -13 16 -12 3 4 -13 16 -21 21 -21 13z"/>
<path d="M750 566 c0 -2 8 -10 18 -17 15 -13 16 -12 3 4 -13 16 -21 21 -21 13z"/>
<path d="M2028 13 c6 -2 18 -2 25 0 6 3 1 5 -13 5 -14 0 -19 -2 -12 -5z"/>
<path d="M2448 13 c7 -3 16 -2 19 1 4 3 -2 6 -13 5 -11 0 -14 -3 -6 -6z"/>
<path d="M2223 3 c15 -2 39 -2 55 0 15 2 2 4 -28 4 -30 0 -43 -2 -27 -4z"/>
</g>
</svg>
